<svg width="288" height="193" viewBox="0 0 288 193" fill="none" xmlns="http://www.w3.org/2000/svg">
<rect width="288" height="193" fill="#1E2121"/>
<path d="M88.6331 20.5176C116.793 20.5091 139.772 43.6103 139.78 72.2923C139.788 100.974 116.824 124.089 88.6634 124.098C60.5034 124.106 37.5258 101.005 37.5174 72.3229C37.509 43.641 60.473 20.5262 88.6331 20.5176Z" fill="#D9D9D9" stroke="url(#paint0_radial_1311_888)" stroke-width="15"/>
<path d="M76 125.221C80.5 121.941 88.5 9.00004 76 27.9999C63.5 46.9998 56.4233 -2.50017 92.7063 27.9999C128.989 58.5 92.7063 125.221 92.7063 125.221L140.344 156.465L252 135.091L128.989 180L92.7063 125.221V180H76C76 180 71.5 128.5 76 125.221Z" fill="url(#paint1_linear_1311_888)"/>
<path d="M92.7063 125.221V180H76C76 180 71.5 128.5 76 125.221C80.5 121.941 88.5 9.00004 76 27.9999C63.5 46.9998 56.4233 -2.50017 92.7063 27.9999C128.989 58.5 92.7063 125.221 92.7063 125.221ZM92.7063 125.221L128.989 180L252 135.091L140.344 156.465L92.7063 125.221Z" stroke="#0C5F63"/>
<path d="M186.88 111.08C186.88 111.32 186.747 111.44 186.48 111.44C185.2 111.387 183.92 111.307 182.64 111.2C181.387 111.12 180.093 110.947 178.76 110.68C178.52 110.627 178.307 110.56 178.12 110.48C177.933 110.427 177.733 110.333 177.52 110.2C177.307 110.093 177.013 109.933 176.64 109.72L170.48 105.92C170.053 105.653 169.627 105.4 169.2 105.16C168.773 104.92 168.267 104.72 167.68 104.56C167.12 104.4 166.373 104.32 165.44 104.32L168.16 103.28C169.12 103.36 170 103.467 170.8 103.6C171.6 103.707 172.347 103.853 173.04 104.04C173.76 104.253 174.44 104.547 175.08 104.92L180.92 108.16C181.213 108.32 181.48 108.453 181.72 108.56C181.987 108.693 182.267 108.827 182.56 108.96C183.2 109.173 183.84 109.373 184.48 109.56C185.12 109.747 185.8 109.907 186.52 110.04C186.76 110.12 186.88 110.28 186.88 110.52V111.08ZM164.76 104.32C161.853 104.32 159.28 103.693 157.04 102.44C154.827 101.16 153.093 99.3867 151.84 97.12C150.613 94.8267 150 92.1733 150 89.16C150 86.1467 150.627 83.5067 151.88 81.24C153.133 78.9733 154.867 77.2 157.08 75.92C159.293 74.64 161.853 74 164.76 74C167.72 74 170.32 74.64 172.56 75.92C174.8 77.1733 176.533 78.9467 177.76 81.24C179.013 83.5067 179.64 86.1467 179.64 89.16C179.64 92.2 179.013 94.8667 177.76 97.16C176.533 99.4267 174.8 101.187 172.56 102.44C170.347 103.693 167.747 104.32 164.76 104.32ZM164.6 101.76C166.787 101.76 168.68 101.24 170.28 100.2C171.907 99.16 173.16 97.7067 174.04 95.84C174.92 93.9467 175.36 91.72 175.36 89.16C175.36 86.5733 174.92 84.3467 174.04 82.48C173.16 80.5867 171.92 79.1333 170.32 78.12C168.72 77.08 166.813 76.56 164.6 76.56C162.493 76.56 160.667 77.08 159.12 78.12C157.573 79.1333 156.373 80.5867 155.52 82.48C154.693 84.3467 154.28 86.5733 154.28 89.16C154.28 91.72 154.707 93.9467 155.56 95.84C156.413 97.7067 157.613 99.16 159.16 100.2C160.707 101.24 162.52 101.76 164.6 101.76ZM206.985 97.52V102.88L206.225 101.64L209.665 102.44C209.905 102.52 210.025 102.68 210.025 102.92V103.4C210.025 103.64 209.892 103.773 209.625 103.8L204.065 104.32C203.878 104.347 203.718 104.307 203.585 104.2C203.478 104.12 203.425 103.973 203.425 103.76V99.2L203.305 98.84V97.52H206.985ZM194.985 104.36C193.038 104.36 191.585 103.827 190.625 102.76C189.665 101.667 189.185 100.027 189.185 97.84V91.36H192.865V97.44C192.865 100.053 194.105 101.36 196.585 101.36C199.145 101.36 201.572 100.213 203.865 97.92L204.185 99C203.545 100.013 202.745 100.933 201.785 101.76C200.825 102.56 199.758 103.2 198.585 103.68C197.438 104.133 196.238 104.36 194.985 104.36ZM203.305 97.52V91.36H206.985V97.52H203.305ZM189.185 91.36V85.52L189.905 86.72L186.465 86.16C186.225 86.1333 186.105 85.9867 186.105 85.72V85.24C186.105 85 186.238 84.8667 186.505 84.84L191.825 84.04C192.198 83.9867 192.465 84.0133 192.625 84.12C192.785 84.2 192.865 84.4133 192.865 84.76V91.36H189.185ZM203.305 91.36V85.52L204.025 86.72L200.585 86.16C200.345 86.1333 200.225 85.9867 200.225 85.72V85.24C200.225 85 200.358 84.8667 200.625 84.84L205.945 84.04C206.318 83.9867 206.585 84.0133 206.745 84.12C206.905 84.2 206.985 84.4133 206.985 84.76V91.36H203.305ZM218.672 104V91.32H222.352V104H218.672ZM216.272 104C216.032 104 215.912 103.867 215.912 103.6V103.2C215.912 102.933 216.046 102.787 216.312 102.76L217.872 102.4C218.246 102.32 218.472 102.227 218.552 102.12C218.632 102.013 218.672 101.773 218.672 101.4V96.8H222.352V101.44C222.352 101.787 222.392 102.013 222.472 102.12C222.579 102.227 222.819 102.307 223.192 102.36L225.672 102.8C225.912 102.827 226.032 102.973 226.032 103.24V103.64C226.032 103.88 225.899 104 225.632 104H216.272ZM218.672 91.32V85.48L219.392 86.68L215.952 86.12C215.712 86.0933 215.592 85.9467 215.592 85.68V85.2C215.592 84.96 215.726 84.8267 215.992 84.8L221.312 84C221.686 83.9467 221.952 83.9733 222.112 84.08C222.272 84.16 222.352 84.3733 222.352 84.72V91.32H218.672ZM220.552 80.48C219.886 80.48 219.312 80.2667 218.832 79.84C218.352 79.4133 218.112 78.88 218.112 78.24C218.112 77.6 218.352 77.0667 218.832 76.64C219.312 76.2133 219.886 76 220.552 76C221.246 76 221.819 76.2133 222.272 76.64C222.752 77.0667 222.992 77.6 222.992 78.24C222.992 78.88 222.752 79.4133 222.272 79.84C221.819 80.2667 221.246 80.48 220.552 80.48ZM240.912 104.32C239.072 104.32 237.446 103.893 236.032 103.04C234.646 102.187 233.566 101 232.792 99.48C232.019 97.96 231.632 96.2 231.632 94.2C231.632 92.1733 232.032 90.4 232.832 88.88C233.632 87.36 234.752 86.1733 236.192 85.32C237.632 84.44 239.299 84 241.192 84C242.339 84 243.499 84.12 244.672 84.36C245.846 84.5733 246.886 84.8667 247.792 85.24C248.006 85.3467 248.099 85.5333 248.072 85.8L247.712 91.32C247.686 91.56 247.539 91.68 247.272 91.68H246.432C246.166 91.68 246.019 91.5467 245.992 91.28L244.952 86.24L246.672 87.32C245.926 87.0267 245.126 86.8 244.272 86.64C243.419 86.48 242.526 86.4 241.592 86.4C239.566 86.4 238.032 87.0267 236.992 88.28C235.979 89.5067 235.472 91.3467 235.472 93.8C235.472 95.4 235.752 96.8133 236.312 98.04C236.899 99.24 237.712 100.187 238.752 100.88C239.792 101.573 240.979 101.92 242.312 101.92C243.246 101.92 244.139 101.773 244.992 101.48C245.872 101.187 246.686 100.747 247.432 100.16C247.619 99.9733 247.792 100 247.952 100.24L248.312 100.8C248.446 100.96 248.419 101.16 248.232 101.4C247.379 102.333 246.312 103.053 245.032 103.56C243.779 104.067 242.406 104.32 240.912 104.32ZM256.85 104V81.24H260.53V104H256.85ZM254.45 104C254.21 104 254.09 103.867 254.09 103.6V103.2C254.09 102.933 254.223 102.787 254.49 102.76L256.05 102.4C256.423 102.32 256.65 102.227 256.73 102.12C256.81 102.013 256.85 101.773 256.85 101.4V96.8H260.53V101.44C260.53 101.787 260.57 102.013 260.65 102.12C260.757 102.227 260.997 102.307 261.37 102.36L263.85 102.8C264.09 102.827 264.21 102.973 264.21 103.24V103.64C264.21 103.88 264.077 104 263.81 104H254.45ZM256.85 81.28V75.44L257.57 76.64L254.13 76.08C253.89 76.0533 253.77 75.9067 253.77 75.64V75.16C253.77 74.92 253.903 74.7867 254.17 74.76L259.49 73.96C259.863 73.9067 260.13 73.9333 260.29 74.04C260.45 74.12 260.53 74.3333 260.53 74.68V81.28H256.85ZM270.29 104C270.023 104 269.823 103.893 269.69 103.68L261.65 93.84L264.05 91.72L272.09 101.36C272.303 101.6 272.517 101.8 272.73 101.96C272.97 102.093 273.25 102.213 273.57 102.32L275.13 102.76C275.37 102.787 275.49 102.947 275.49 103.24V103.64C275.49 103.88 275.357 104 275.09 104H270.29ZM259.89 96L259.65 93.8L266.77 87.2C267.383 86.64 267.637 86.2667 267.53 86.08C267.45 85.8667 267.01 85.72 266.21 85.64L265.45 85.56C265.21 85.5333 265.09 85.3867 265.09 85.12V84.68C265.09 84.44 265.223 84.32 265.49 84.32H273.85C274.09 84.32 274.21 84.4533 274.21 84.72V85.16C274.21 85.4267 274.077 85.5733 273.81 85.6L272.13 85.88C271.81 85.9333 271.53 86.0267 271.29 86.16C271.05 86.2933 270.797 86.4667 270.53 86.68L259.89 96Z" fill="#16828B"/>
<path d="M128.032 116.352V115.68H135.28C136.96 115.68 138.256 116.056 139.168 116.808C140.08 117.56 140.536 118.568 140.536 119.832V120.384C140.536 121.344 140.272 122.16 139.744 122.832C139.216 123.504 138.456 123.984 137.464 124.272L140.464 129.984C140.656 130.336 140.8 130.592 140.896 130.752C140.992 130.912 141.08 131.016 141.16 131.064C141.256 131.096 141.384 131.128 141.544 131.16L142.624 131.328V132H138.136L134.512 124.56H132.76V129.984C132.76 130.528 132.784 130.856 132.832 130.968C132.88 131.064 133.032 131.128 133.288 131.16L134.608 131.328V132H128.032V131.328L129.352 131.16C129.608 131.128 129.76 131.064 129.808 130.968C129.856 130.856 129.88 130.528 129.88 129.984V117.696C129.88 117.152 129.856 116.832 129.808 116.736C129.76 116.624 129.608 116.552 129.352 116.52L128.032 116.352ZM135.28 116.52H132.76V123.72H135.28C135.984 123.72 136.52 123.504 136.888 123.072C137.272 122.624 137.464 121.808 137.464 120.624V119.592C137.464 118.408 137.272 117.6 136.888 117.168C136.52 116.736 135.984 116.52 135.28 116.52ZM158.569 129.144C158.281 130.264 157.745 131.064 156.961 131.544C156.177 132.008 155.265 132.24 154.225 132.24C152.305 132.24 150.865 131.688 149.905 130.584C148.945 129.464 148.465 127.984 148.465 126.144V125.664C148.465 123.824 148.913 122.352 149.809 121.248C150.721 120.144 152.033 119.592 153.745 119.592C154.705 119.592 155.553 119.784 156.289 120.168C157.041 120.536 157.625 121.072 158.041 121.776C158.473 122.48 158.689 123.336 158.689 124.344C158.689 124.584 158.673 124.84 158.641 125.112C158.625 125.384 158.585 125.656 158.521 125.928H151.417V126.624C151.417 128.32 151.657 129.544 152.137 130.296C152.617 131.032 153.393 131.4 154.465 131.4C155.153 131.4 155.737 131.2 156.217 130.8C156.697 130.384 156.969 129.688 157.033 128.712L158.569 129.144ZM153.745 120.432C152.961 120.432 152.377 120.792 151.993 121.512C151.609 122.232 151.417 123.424 151.417 125.088H155.761C155.825 124.768 155.865 124.472 155.881 124.2C155.913 123.912 155.929 123.648 155.929 123.408C155.929 122.384 155.729 121.632 155.329 121.152C154.929 120.672 154.401 120.432 153.745 120.432ZM175.099 121.848L171.691 132H169.507L166.099 121.848C165.987 121.48 165.891 121.224 165.811 121.08C165.747 120.92 165.667 120.816 165.571 120.768C165.491 120.72 165.363 120.688 165.187 120.672L163.867 120.504V119.832H170.347V120.504L169.027 120.672C168.787 120.704 168.659 120.768 168.643 120.864C168.627 120.96 168.707 121.288 168.883 121.848L171.523 129.816L174.187 121.848C174.363 121.288 174.443 120.96 174.427 120.864C174.427 120.768 174.299 120.704 174.043 120.672L172.723 120.504V119.832H177.307V120.504L175.987 120.672C175.827 120.688 175.699 120.72 175.603 120.768C175.523 120.816 175.451 120.92 175.387 121.08C175.323 121.224 175.227 121.48 175.099 121.848ZM185.511 117.768C185.015 117.768 184.615 117.616 184.311 117.312C184.007 116.992 183.855 116.584 183.855 116.088C183.855 115.592 184.007 115.192 184.311 114.888C184.615 114.584 185.015 114.432 185.511 114.432C185.991 114.432 186.391 114.584 186.711 114.888C187.031 115.192 187.191 115.592 187.191 116.088C187.191 116.584 187.031 116.992 186.711 117.312C186.391 117.616 185.991 117.768 185.511 117.768ZM182.295 120.504V119.832H186.903V129.984C186.903 130.528 186.927 130.856 186.975 130.968C187.023 131.064 187.175 131.128 187.431 131.16L188.751 131.328V132H182.295V131.328L183.615 131.16C183.871 131.128 184.023 131.064 184.071 130.968C184.119 130.856 184.143 130.528 184.143 129.984V121.848C184.143 121.304 184.119 120.984 184.071 120.888C184.023 120.776 183.871 120.704 183.615 120.672L182.295 120.504ZM199.709 127.464L198.053 127.08C196.981 126.824 196.181 126.368 195.653 125.712C195.141 125.04 194.885 124.248 194.885 123.336C194.885 122.664 195.029 122.048 195.317 121.488C195.621 120.912 196.093 120.456 196.733 120.12C197.373 119.768 198.205 119.592 199.229 119.592C200.333 119.592 201.229 119.768 201.917 120.12C202.605 120.472 203.093 120.936 203.381 121.512C203.669 122.088 203.757 122.704 203.645 123.36L201.005 123.84C201.229 122.752 201.165 121.912 200.813 121.32C200.477 120.728 199.909 120.432 199.109 120.432C198.549 120.432 198.085 120.6 197.717 120.936C197.349 121.256 197.165 121.72 197.165 122.328C197.165 122.888 197.325 123.384 197.645 123.816C197.965 124.232 198.437 124.512 199.061 124.656L200.717 125.04C201.901 125.312 202.757 125.744 203.285 126.336C203.813 126.912 204.077 127.632 204.077 128.496C204.077 129.568 203.677 130.464 202.877 131.184C202.093 131.888 200.917 132.24 199.349 132.24C198.805 132.24 198.205 132.16 197.549 132C196.909 131.824 196.317 131.512 195.773 131.064C195.245 130.616 194.861 129.976 194.621 129.144L196.181 128.52C196.293 129.576 196.653 130.32 197.261 130.752C197.885 131.184 198.581 131.4 199.349 131.4C200.069 131.4 200.653 131.24 201.101 130.92C201.565 130.584 201.797 130.104 201.797 129.48C201.797 129.048 201.645 128.656 201.341 128.304C201.053 127.936 200.509 127.656 199.709 127.464ZM213.545 117.768C213.049 117.768 212.649 117.616 212.345 117.312C212.041 116.992 211.889 116.584 211.889 116.088C211.889 115.592 212.041 115.192 212.345 114.888C212.649 114.584 213.049 114.432 213.545 114.432C214.025 114.432 214.425 114.584 214.745 114.888C215.065 115.192 215.225 115.592 215.225 116.088C215.225 116.584 215.065 116.992 214.745 117.312C214.425 117.616 214.025 117.768 213.545 117.768ZM210.329 120.504V119.832H214.937V129.984C214.937 130.528 214.961 130.856 215.009 130.968C215.057 131.064 215.209 131.128 215.465 131.16L216.785 131.328V132H210.329V131.328L211.649 131.16C211.905 131.128 212.057 131.064 212.105 130.968C212.153 130.856 212.177 130.528 212.177 129.984V121.848C212.177 121.304 212.153 120.984 212.105 120.888C212.057 120.776 211.905 120.704 211.649 120.672L210.329 120.504ZM233.959 125.664V126.144C233.959 127.984 233.479 129.464 232.519 130.584C231.575 131.688 230.223 132.24 228.463 132.24C226.703 132.24 225.343 131.688 224.383 130.584C223.439 129.464 222.967 127.984 222.967 126.144V125.664C222.967 123.824 223.439 122.352 224.383 121.248C225.343 120.144 226.703 119.592 228.463 119.592C230.223 119.592 231.575 120.144 232.519 121.248C233.479 122.352 233.959 123.824 233.959 125.664ZM231.007 125.184C231.007 123.472 230.791 122.256 230.359 121.536C229.927 120.8 229.295 120.432 228.463 120.432C227.647 120.432 227.015 120.8 226.567 121.536C226.135 122.256 225.919 123.472 225.919 125.184V126.624C225.919 128.32 226.135 129.544 226.567 130.296C227.015 131.032 227.647 131.4 228.463 131.4C229.295 131.4 229.927 131.032 230.359 130.296C230.791 129.544 231.007 128.32 231.007 126.624V125.184ZM254.444 131.328V132H247.988V131.328L249.308 131.16C249.564 131.128 249.716 131.064 249.764 130.968C249.812 130.856 249.836 130.528 249.836 129.984V123.936C249.836 122.832 249.668 122.032 249.332 121.536C249.012 121.024 248.532 120.768 247.892 120.768C247.62 120.768 247.3 120.84 246.932 120.984C246.58 121.112 246.22 121.352 245.852 121.704C245.5 122.056 245.188 122.576 244.916 123.264V129.984C244.916 130.528 244.94 130.856 244.988 130.968C245.036 131.064 245.188 131.128 245.444 131.16L246.764 131.328V132H240.308V131.328L241.628 131.16C241.884 131.128 242.036 131.064 242.084 130.968C242.132 130.856 242.156 130.528 242.156 129.984V121.848C242.156 121.304 242.132 120.984 242.084 120.888C242.036 120.776 241.884 120.704 241.628 120.672L240.308 120.504V119.832H244.772V121.944C245.236 121.128 245.828 120.536 246.548 120.168C247.284 119.784 248.02 119.592 248.756 119.592C249.94 119.592 250.876 119.968 251.564 120.72C252.252 121.472 252.596 122.536 252.596 123.912V129.984C252.596 130.528 252.62 130.856 252.668 130.968C252.716 131.064 252.868 131.128 253.124 131.16L254.444 131.328Z" fill="url(#paint2_linear_1311_888)"/>
<defs>
<radialGradient id="paint0_radial_1311_888" cx="0" cy="0" r="1" gradientUnits="userSpaceOnUse" gradientTransform="translate(103.778 71.702) rotate(155.418) scale(90.2649 66.682)">
<stop stop-color="#1F8D93"/>
<stop offset="0.9999" stop-color="#10494C"/>
<stop offset="1" stop-color="#0A2B2D"/>
</radialGradient>
<linearGradient id="paint1_linear_1311_888" x1="108.02" y1="28" x2="86.539" y2="204.871" gradientUnits="userSpaceOnUse">
<stop offset="0.3" stop-color="#FFFBFB"/>
<stop offset="1" stop-color="#124F52"/>
</linearGradient>
<linearGradient id="paint2_linear_1311_888" x1="127" y1="127" x2="258" y2="127" gradientUnits="userSpaceOnUse">
<stop offset="0.0336538" stop-color="#559897" stop-opacity="0.9"/>
<stop offset="0.528846" stop-color="#C9D8D8" stop-opacity="0.9"/>
<stop offset="1" stop-color="#0F9D9D" stop-opacity="0.9"/>
</linearGradient>
</defs>
</svg>
